<svg width="189" height="189" viewBox="0 0 189 189" fill="none" xmlns="http://www.w3.org/2000/svg">
<g clip-path="url(#clip0)">
<path d="M178.549 104.2H162.66V61.2689C162.66 55.5564 158.012 50.9093 152.3 50.9093H128.391V40.6173C128.391 35.0795 123.885 30.5737 118.347 30.5737H111.979C110.449 30.5737 109.21 31.8133 109.21 33.3423C109.21 34.8713 110.449 36.1108 111.979 36.1108H118.347C120.832 36.1108 122.853 38.1326 122.853 40.6173V127.813H5.53711V58.0263C5.53711 56.4974 4.2979 55.2578 2.76855 55.2578C1.23921 55.2578 0 56.4974 0 58.0263V151.873C0 157.411 4.50536 161.917 10.0436 161.917H16.4061C17.7981 169.506 24.4611 175.276 32.4464 175.276C40.4316 175.276 47.0946 169.506 48.4866 161.917H92.5277C94.057 161.917 95.2962 160.677 95.2962 159.148C95.2962 157.619 94.057 156.38 92.5277 156.38H48.549C47.3054 148.613 40.5582 142.66 32.4467 142.66C24.3352 142.66 17.5881 148.613 16.3444 156.38H10.0436C7.55889 156.38 5.53711 154.358 5.53711 151.873V133.35H122.853V156.38H105.227C103.698 156.38 102.459 157.619 102.459 159.148C102.459 160.677 103.698 161.917 105.227 161.917H141.132C142.524 169.506 149.187 175.276 157.173 175.276C165.158 175.276 171.822 169.506 173.213 161.917H178.64C184.353 161.917 189 157.269 189 151.557V114.651C189 108.888 184.312 104.2 178.549 104.2ZM32.4464 148.197C38.3855 148.197 43.2171 153.029 43.2171 158.968C43.2171 164.907 38.3855 169.739 32.4464 169.739C26.5073 169.739 21.6759 164.907 21.6759 158.968C21.6759 153.029 26.5076 148.197 32.4464 148.197ZM141.356 104.2V67.4512H157.123V104.2H141.356ZM157.173 169.739C151.234 169.739 146.402 164.907 146.402 158.968C146.402 153.029 151.234 148.197 157.173 148.197C163.112 148.197 167.943 153.029 167.943 158.968C167.943 164.907 163.112 169.739 157.173 169.739ZM178.64 156.38H173.275C172.032 148.613 165.285 142.66 157.173 142.66C149.061 142.66 142.314 148.613 141.07 156.38H128.39V56.4464H152.3C154.959 56.4464 157.122 58.61 157.122 61.2689V61.9141H138.587C137.057 61.9141 135.818 63.1537 135.818 64.6827V106.968C135.818 108.497 137.057 109.737 138.587 109.737H178.548C181.258 109.737 183.463 111.942 183.463 114.651V118.588H176.095C171.515 118.588 167.789 122.314 167.789 126.894C167.789 131.473 171.515 135.199 176.095 135.199H183.463V151.557C183.463 154.216 181.3 156.38 178.64 156.38ZM183.463 124.125V129.662H176.095C174.568 129.662 173.327 128.42 173.327 126.893C173.327 125.366 174.568 124.125 176.095 124.125H183.463Z" fill="#84BD52"/>
<path d="M144.988 118.587H138.587C137.057 118.587 135.818 119.827 135.818 121.356C135.818 122.885 137.057 124.125 138.587 124.125H144.988C146.517 124.125 147.757 122.885 147.757 121.356C147.757 119.827 146.517 118.587 144.988 118.587Z" fill="#84BD52"/>
<path d="M2.76855 47.8141C4.2979 47.8141 5.53711 46.5745 5.53711 45.0455V40.6173C5.53711 38.1326 7.55889 36.1108 10.0436 36.1108H16.1787C17.708 36.1108 18.9473 34.8713 18.9473 33.3423C18.9473 31.8133 17.708 30.5737 16.1787 30.5737H10.0436C4.50536 30.5737 0 35.0791 0 40.6173V45.0455C0 46.5745 1.23921 47.8141 2.76855 47.8141Z" fill="#84BD52"/>
<path d="M64.195 85.1215C78.5383 85.1215 90.2076 73.4523 90.2076 59.1086C90.2076 44.7649 78.5387 33.0959 64.195 33.0959C49.8513 33.0959 38.182 44.7652 38.182 59.1086C38.182 73.4519 49.8517 85.1215 64.195 85.1215ZM64.195 38.6331C75.4851 38.6331 84.6705 47.8184 84.6705 59.1086C84.6705 70.3987 75.4851 79.5844 64.195 79.5844C52.9044 79.5844 43.7191 70.3991 43.7191 59.1086C43.7191 47.818 52.9044 38.6331 64.195 38.6331Z" fill="#84BD52"/>
<path d="M31.5095 90.5948C32.0528 91.1589 32.7775 91.4424 33.5032 91.4424C34.1942 91.4424 34.8867 91.1851 35.4238 90.6675C36.5246 89.6066 36.5571 87.854 35.4962 86.7528C28.3068 79.2914 24.3474 69.4737 24.3474 59.1086C24.3474 37.137 42.223 19.2613 64.1947 19.2613C86.1663 19.2613 104.042 37.137 104.042 59.1086C104.042 76.9709 92.033 92.7661 74.8381 97.5195C74.3767 97.6472 73.9562 97.892 73.6177 98.2305L64.1954 107.653L54.7731 98.2305C54.4346 97.892 54.0141 97.6472 53.5531 97.5195C50.6878 96.7273 47.9067 95.6085 45.2865 94.1932C43.9407 93.4667 42.2611 93.9684 41.535 95.3135C40.8081 96.6591 41.3098 98.3383 42.6549 99.0651C45.4235 100.561 48.3504 101.766 51.3648 102.653L62.2375 113.526C62.7783 114.067 63.487 114.337 64.1954 114.337C64.9038 114.337 65.6125 114.067 66.1533 113.526L77.026 102.654C96.2316 97.0046 109.58 79.2057 109.58 59.109C109.58 34.0842 89.2206 13.7246 64.1958 13.7246C39.1706 13.7246 18.8114 34.0838 18.8114 59.109C18.8107 70.9141 23.3205 82.0961 31.5095 90.5948Z" fill="#84BD52"/>
</g>
<defs>
<clipPath id="clip0">
<rect width="189" height="189" fill="white"/>
</clipPath>
</defs>
</svg>
