<svg width="189" height="185" viewBox="0 0 189 185" fill="none" xmlns="http://www.w3.org/2000/svg">
<path d="M22.6516 108.729H25.6025C27.6413 108.729 29.2939 107.076 29.2939 105.037C29.2939 102.999 27.6413 101.346 25.6025 101.346H22.6516C20.6128 101.346 18.9602 102.999 18.9602 105.037C18.9602 107.076 20.6128 108.729 22.6516 108.729Z" fill="#84BD52"/>
<path d="M62.769 108.729C64.8078 108.729 66.4604 107.076 66.4604 105.037C66.4604 102.999 64.8078 101.346 62.769 101.346H40.377C38.3382 101.346 36.6855 102.999 36.6855 105.037C36.6855 107.076 38.3382 108.729 40.377 108.729H62.769Z" fill="#84BD52"/>
<path d="M22.6516 126.25H62.7691C64.8078 126.25 66.4605 124.597 66.4605 122.559C66.4605 120.521 64.8078 118.868 62.7691 118.868H22.6516C20.6128 118.868 18.9602 120.521 18.9602 122.559C18.9602 124.597 20.6128 126.25 22.6516 126.25Z" fill="#84BD52"/>
<path d="M144.969 74.3191V12.4072C144.969 5.78591 139.577 0.399414 132.949 0.399414H12.01C5.38761 0.399414 0 5.78628 0 12.4072V56.2899C0 58.3283 1.65264 59.9813 3.69141 59.9813C5.73017 59.9813 7.38281 58.3283 7.38281 56.2899V12.4072C7.38281 9.8568 9.45849 7.78223 12.01 7.78223H46.2493V55.6623C46.2493 57.0001 46.9731 58.2334 48.1411 58.8853C49.3091 59.5372 50.7387 59.5069 51.8775 58.8045L72.4793 46.1068L93.081 58.8045C95.5004 60.2958 98.7093 58.4907 98.7093 55.662V7.78223H132.949C135.506 7.78223 137.586 9.8568 137.586 12.4072V73.2405C136.145 73.1286 134.689 73.0703 133.221 73.0703C102.464 73.0703 77.4413 98.0866 77.4413 128.835C77.4413 131.938 77.7004 134.981 78.1903 137.948H12.01C9.45849 137.948 7.38281 135.868 7.38281 133.313V89.4299C7.38281 87.3915 5.73017 85.7384 3.69141 85.7384C1.65264 85.7384 0 87.3915 0 89.4299V133.313C0 139.94 5.38761 145.331 12.01 145.331H79.9326C86.9843 168.052 108.205 184.601 133.221 184.601C163.977 184.601 189 159.584 189 128.836C189 102.115 170.103 79.7274 144.969 74.3191ZM91.3265 49.051L74.4162 38.6284C73.2286 37.8967 71.7299 37.8967 70.5424 38.6284L53.6321 49.051V7.78223H91.3265V49.051ZM133.221 177.218C106.535 177.218 84.8241 155.513 84.8241 128.836C84.8241 102.158 106.535 80.4535 133.221 80.4535C159.907 80.4535 181.617 102.157 181.617 128.836C181.617 155.514 159.907 177.218 133.221 177.218Z" fill="#84BD52"/>
<path d="M139.928 107.455H125.827L132.408 100.881C133.85 99.4402 133.852 97.1028 132.411 95.6602C130.97 94.2176 128.633 94.2169 127.19 95.6573L114.299 108.534C112.876 109.945 112.876 112.348 114.299 113.758L127.19 126.635C127.911 127.355 128.855 127.715 129.799 127.715C130.744 127.715 131.69 127.354 132.411 126.632C133.851 125.19 133.85 122.853 132.408 121.411L125.827 114.837H139.928C148.861 114.837 156.128 122.102 156.128 131.032C156.128 139.967 148.861 147.237 139.928 147.237H106.623C104.584 147.237 102.931 148.89 102.931 150.928C102.931 152.966 104.584 154.619 106.623 154.619H139.928C152.932 154.619 163.511 144.038 163.511 131.032C163.51 118.032 152.932 107.455 139.928 107.455Z" fill="#84BD52"/>
<path d="M3.69141 76.5616C5.73017 76.5616 7.38281 74.8983 7.38281 72.8599C7.38281 70.8215 5.73017 69.1685 3.69141 69.1685C1.65264 69.1685 0 70.8215 0 72.8599V72.8809C0 74.9193 1.65264 76.5616 3.69141 76.5616Z" fill="#84BD52"/>
</svg>
