<svg width="189" height="149" viewBox="0 0 189 149" fill="none" xmlns="http://www.w3.org/2000/svg">
<path d="M186.231 64.8942H174.361C173.954 64.8942 173.552 64.9839 173.184 65.1571C165.454 68.7899 158.329 73.5412 151.945 79.3151C149.573 70.1709 144.46 61.8628 137.227 55.533C134.346 53.0109 131.192 50.8676 127.843 49.1264C128.912 48.7432 129.678 47.7236 129.678 46.5224C129.678 44.993 128.439 43.7538 126.909 43.7538H124.754C124.292 28.5758 112.661 16.1646 97.8149 14.4813C97.936 13.801 98.0043 13.1099 98.0043 12.4126C98.0043 5.92071 92.7225 0.638916 86.2303 0.638916C79.7384 0.638916 74.457 5.92071 74.457 12.4126C74.457 13.1095 74.5249 13.8006 74.646 14.4806C67.8906 15.2403 61.6199 18.2178 56.7142 23.0681C55.6271 24.1431 55.6171 25.8961 56.6921 26.9833C57.7671 28.0701 59.5201 28.0804 60.6073 27.0054C65.2951 22.3704 71.5049 19.8177 78.0924 19.8177C79.1507 19.8177 95.4187 19.8177 94.3667 19.8177C107.768 19.8177 118.728 30.4718 119.223 43.7541C110.585 43.7541 58.9568 43.7541 53.2369 43.7541C53.3428 40.9087 53.9312 38.129 54.99 35.4767C55.557 34.0566 54.8656 32.4456 53.4454 31.879C52.0261 31.313 50.4144 32.0037 49.8477 33.4235C48.5269 36.7314 47.8122 40.2029 47.7041 43.7541H45.5508C44.0214 43.7541 42.7822 44.9934 42.7822 46.5228C42.7822 47.7306 43.5567 48.7546 44.6353 49.133C39.6744 51.7089 35.1519 55.155 31.3238 59.3681C22.3753 69.2166 17.9695 82.4362 19.2361 95.6381C19.7189 100.673 20.5639 105.602 21.7426 110.344C20.4295 109.716 19.0478 109.224 17.6174 108.885L6.5167 106.255C5.03198 105.903 3.53693 106.822 3.18439 108.31L0.55384 119.41C-0.826037 125.233 0.401751 131.356 3.92306 136.208C4.46497 136.954 5.30958 137.351 6.166 137.351C6.72969 137.351 7.29855 137.179 7.78989 136.823C9.02764 135.925 9.30266 134.194 8.40452 132.956C5.83156 129.411 4.93416 124.939 5.94156 120.687L7.93386 112.281L16.3405 114.273C18.4066 114.763 20.3321 115.686 22.0006 116.965C19.6429 123.706 20.2188 131.25 23.7153 137.602C21.417 139.066 18.8507 139.341 15.9769 138.427C14.5202 137.965 12.9628 138.77 12.4999 140.227C12.0366 141.684 12.8428 143.241 14.2998 143.704C19.0533 145.215 23.3853 144.46 26.9029 142.133C34.2405 150.448 45.676 150.033 52.4129 143.296C52.7909 142.918 53.1497 142.528 53.4986 142.133C55.829 143.674 58.5718 144.504 61.3618 144.504C62.4431 144.504 63.5317 144.379 64.6044 144.125C67.1704 143.517 69.5056 142.444 71.5514 141.025H128.605C134.068 141.025 139.103 138.035 141.744 133.222C143.838 129.405 145.679 125.446 147.216 121.452C147.771 120.01 149.023 118.938 150.566 118.584C157.861 116.911 163.813 111.438 166.101 104.298L166.196 104.018C166.67 102.564 165.876 101.002 164.422 100.528C162.967 100.053 161.405 100.848 160.931 102.302L160.9 102.394C160.875 102.467 160.849 102.541 160.827 102.612C159.133 107.896 154.728 111.949 149.328 113.187C145.987 113.953 143.265 116.3 142.048 119.465C140.6 123.226 138.865 126.959 136.889 130.558C135.22 133.599 132.046 135.487 128.605 135.487H76.9683C79.9983 130.916 81.2106 125.155 79.8492 119.411L77.2179 108.31C76.8653 106.823 75.3732 105.903 73.8856 106.255L62.7853 108.886C60.3315 109.467 58.0188 110.493 55.956 111.898C54.9637 110.318 53.788 108.82 52.4137 107.446L42.1595 97.1915C41.0779 96.1106 39.3251 96.1106 38.2439 97.1915L27.989 107.446C27.6434 107.791 27.313 108.146 26.9915 108.506C25.9435 104.184 25.1886 99.6947 24.7486 95.1091C23.6308 83.4573 27.5212 71.787 35.4225 63.0917C43.3921 54.321 54.7578 49.291 66.6059 49.291H105.854C116.064 49.291 125.911 52.9877 133.58 59.6996C141.138 66.3144 146.076 75.3659 147.484 85.1871C147.633 86.2285 148.36 87.0953 149.359 87.4242C150.358 87.7531 151.458 87.4877 152.196 86.7383C158.878 79.9622 166.542 74.4781 174.984 70.4319H179.623C173.913 76.6583 169.211 83.4876 165.603 90.8026C164.926 92.174 165.49 93.8341 166.861 94.5107C168.233 95.1867 169.892 94.6237 170.569 93.2527C174.834 84.6065 180.744 76.6734 188.135 69.6736C188.958 68.8943 189.222 67.692 188.803 66.6388C188.384 65.5853 187.365 64.8942 186.231 64.8942ZM86.2303 6.17616C89.6689 6.17616 92.467 8.97358 92.467 12.4126C92.467 13.0501 92.3666 13.6791 92.178 14.2805H80.2836C80.0954 13.6795 79.9946 13.0505 79.9946 12.4126C79.9942 8.97358 82.7916 6.17616 86.2303 6.17616ZM64.0618 114.273L72.468 112.281L74.4607 120.687C76.3673 128.733 71.3735 136.83 63.3279 138.737C61.0362 139.28 58.636 138.844 56.6866 137.602C60.1831 131.25 60.759 123.706 58.4013 116.965C60.0698 115.686 61.9957 114.763 64.0618 114.273ZM40.2011 103.064L48.4977 111.361C59.2377 122.101 53.5329 139.935 42.9697 142.483V131.925L48.0603 127.45C49.2087 126.441 49.3217 124.691 48.3121 123.543C47.3028 122.394 45.5527 122.282 44.405 123.292L42.9697 124.553V123.165C42.9697 121.636 41.7305 120.397 40.2011 120.397C38.6717 120.397 37.4325 121.636 37.4325 123.165V131.45L36.1327 130.697C34.8086 129.93 33.1153 130.38 32.349 131.704C31.5819 133.027 32.033 134.721 33.3556 135.487L37.4329 137.851V142.483C26.8557 139.931 21.1291 122.137 31.9049 111.361L40.2011 103.064Z" fill="#84BD52"/>
<path d="M169.705 49.2909C172.512 49.2909 174.795 51.5745 174.795 54.3811V59.9383C174.795 61.4676 176.034 62.7069 177.564 62.7069C179.093 62.7069 180.332 61.4676 180.332 59.9383V54.3811C180.332 48.5212 175.565 43.7537 169.705 43.7537C166.898 43.7537 164.615 41.4701 164.615 38.6635V29.3532C164.615 26.5037 166.933 24.1858 169.782 24.1858H176.963C182.865 24.1858 187.667 19.3836 187.667 13.4813V10.9947C187.667 9.46531 186.428 8.22607 184.899 8.22607C183.369 8.22607 182.13 9.46531 182.13 10.9947V13.4813C182.13 16.3307 179.812 18.6486 176.963 18.6486H169.782C163.88 18.6486 159.078 23.4509 159.078 29.3532V38.6635C159.077 44.5233 163.845 49.2909 169.705 49.2909Z" fill="#84BD52"/>
<path d="M186.231 35.821C184.702 35.821 183.463 37.0603 183.463 38.5897V58.6174C183.463 60.1468 184.702 61.3861 186.231 61.3861C187.761 61.3861 189 60.1468 189 58.6174V38.5897C189 37.0603 187.761 35.821 186.231 35.821Z" fill="#84BD52"/>
<path d="M170.383 15.1805C171.912 15.1805 173.151 13.9413 173.151 12.412V4.64819C173.151 3.11884 171.912 1.87964 170.383 1.87964C168.853 1.87964 167.614 3.11884 167.614 4.64819V12.412C167.614 13.9413 168.854 15.1805 170.383 15.1805Z" fill="#84BD52"/>
</svg>
