<svg width="189" height="189" viewBox="0 0 189 189" fill="none" xmlns="http://www.w3.org/2000/svg">
<path d="M95.5238 67.0012H24.6547C23.1257 67.0012 21.8865 68.2408 21.8865 69.7694C21.8865 71.2984 23.1257 72.5376 24.6547 72.5376H95.5241C97.0531 72.5376 98.2923 71.298 98.2923 69.7694C98.2923 68.2408 97.0531 67.0012 95.5238 67.0012Z" fill="#84BD52"/>
<path d="M95.5238 86.4534H24.6547C23.1257 86.4534 21.8865 87.6929 21.8865 89.2216C21.8865 90.7502 23.1257 91.9897 24.6547 91.9897H95.5241C97.0531 91.9897 98.2923 90.7502 98.2923 89.2216C98.2923 87.6929 97.0531 86.4534 95.5238 86.4534Z" fill="#84BD52"/>
<path d="M95.5238 105.905H24.6547C23.1257 105.905 21.8865 107.145 21.8865 108.673C21.8865 110.202 23.1257 111.442 24.6547 111.442H95.5241C97.0531 111.442 98.2923 110.202 98.2923 108.673C98.2923 107.145 97.0531 105.905 95.5238 105.905Z" fill="#84BD52"/>
<path d="M98.2923 128.126C98.2923 126.597 97.0531 125.358 95.5241 125.358H24.6547C23.1257 125.358 21.8865 126.597 21.8865 128.126C21.8865 129.655 23.1257 130.894 24.6547 130.894H95.5241C97.0531 130.894 98.2923 129.655 98.2923 128.126Z" fill="#84BD52"/>
<path d="M24.6547 153.865C23.1257 153.865 21.8865 155.105 21.8865 156.634C21.8865 158.162 23.1257 159.402 24.6547 159.402H60.18C61.709 159.402 62.9482 158.162 62.9482 156.634C62.9482 155.105 61.709 153.865 60.18 153.865H24.6547Z" fill="#84BD52"/>
<path d="M127.425 34.2758V25.2931C127.425 21.8712 124.642 19.0872 121.219 19.0872H64.3838C60.9619 19.0872 58.1782 21.8712 58.1782 25.2931V34.2758C58.1782 37.6978 60.9619 40.4814 64.3838 40.4814H69.1834C70.7124 40.4814 71.9516 39.2419 71.9516 37.7133C71.9516 36.1843 70.7124 34.9451 69.1834 34.9451H64.3838C64.0151 34.9451 63.715 34.645 63.715 34.2762V25.2931C63.715 24.9244 64.0151 24.6239 64.3838 24.6239H121.219C121.588 24.6239 121.889 24.924 121.889 25.2931V34.2758C121.889 34.6446 121.588 34.9447 121.219 34.9447H82.1255C80.5965 34.9447 79.3573 36.1843 79.3573 37.7129C79.3573 39.2419 80.5965 40.4811 82.1255 40.4811H121.22C124.642 40.4818 127.425 37.6978 127.425 34.2758Z" fill="#84BD52"/>
<path d="M148.124 168.807C146.595 168.807 145.356 170.046 145.356 171.575V175.303C145.356 179.802 141.695 183.463 137.195 183.463H14.7285C10.229 183.463 6.56786 179.802 6.56786 175.303V42.24C6.56786 41.6409 6.638 41.0532 6.76314 40.4814H31.9692C37.2316 40.4814 41.5129 36.2001 41.5129 30.9377V5.73202C42.0847 5.60688 42.672 5.53674 43.2711 5.53674H137.195C141.695 5.53674 145.356 9.19751 145.356 13.6973V50.5531C145.356 52.0821 146.595 53.3213 148.124 53.3213C149.653 53.3213 150.892 52.0817 150.892 50.5531V13.697C150.893 6.14471 144.748 0 137.195 0H43.2715C39.613 0 36.1729 1.42488 33.586 4.01182L5.04295 32.5549C2.45601 35.1418 1.03149 38.5815 1.03149 42.2404V175.303C1.03149 182.856 7.17584 189 14.7285 189H137.195C144.748 189 150.893 182.855 150.893 175.303V171.575C150.893 170.046 149.653 168.807 148.124 168.807ZM35.9766 9.45148V30.9377C35.9766 33.1474 34.1788 34.9451 31.9692 34.9451H10.483L35.9766 9.45148Z" fill="#84BD52"/>
<path d="M186.04 98.9294C187.983 96.0771 188.486 92.5588 187.42 89.2764C186.353 85.994 183.878 83.4432 180.63 82.2782C178.475 81.5052 177.037 79.5266 176.968 77.238C176.864 73.7884 175.202 70.6462 172.41 68.6174C169.618 66.589 166.116 65.9803 162.804 66.9467C160.604 67.5883 158.28 66.8323 156.879 65.0216C154.767 62.2918 151.576 60.7263 148.124 60.7263C144.673 60.7263 141.482 62.2918 139.37 65.0216C137.969 66.8326 135.643 67.5875 133.445 66.9467C130.133 65.9796 126.631 66.589 123.838 68.6174C121.046 70.6462 119.385 73.788 119.28 77.2376C119.211 79.5263 117.774 81.5045 115.619 82.2779C112.37 83.4429 109.895 85.994 108.829 89.276C107.763 92.5584 108.265 96.0771 110.208 98.929C111.498 100.822 111.498 103.267 110.208 105.159C108.265 108.011 107.763 111.53 108.829 114.812C109.895 118.094 112.37 120.645 115.619 121.811C117.774 122.584 119.212 124.562 119.28 126.851C119.377 130.024 120.831 133.006 123.271 135.03C124.881 136.367 126.815 137.203 128.839 137.482V162.686C128.839 164.813 129.992 166.779 131.849 167.815C133.703 168.852 135.982 168.806 137.794 167.69L147.948 161.439C148.113 161.337 148.212 161.383 148.303 161.439L158.455 167.69C160.267 168.804 162.545 168.852 164.401 167.815C166.258 166.778 167.411 164.812 167.411 162.686V137.481C169.434 137.202 171.368 136.366 172.978 135.03C175.419 133.006 176.873 130.024 176.969 126.85C177.038 124.562 178.476 122.583 180.631 121.81C183.88 120.645 186.355 118.094 187.421 114.812C188.487 111.529 187.985 108.011 186.041 105.159C184.751 103.267 184.751 100.822 186.04 98.9294ZM161.357 162.975L151.204 156.725C149.317 155.563 146.934 155.561 145.044 156.725L134.891 162.975C134.66 163.115 134.375 162.953 134.375 162.686V136.956C136.278 136.736 138.165 137.511 139.37 139.067C141.482 141.797 144.673 143.362 148.125 143.362C151.576 143.362 154.767 141.797 156.879 139.067C158.083 137.51 159.971 136.736 161.874 136.956V162.686C161.874 162.955 161.585 163.116 161.357 162.975ZM181.465 108.277C182.436 109.703 182.687 111.461 182.154 113.101C181.621 114.742 180.384 116.017 178.76 116.599C174.448 118.146 171.573 122.104 171.434 126.684C171.385 128.293 170.677 129.745 169.442 130.77C168.053 131.923 166.172 132.358 164.355 131.828C159.957 130.544 155.303 132.056 152.499 135.679C151.444 137.043 149.849 137.826 148.124 137.826C146.399 137.826 144.804 137.044 143.748 135.679C141.608 132.912 138.388 131.377 135.028 131.377C133.988 131.377 132.934 131.524 131.894 131.827C130.059 132.362 128.184 131.914 126.806 130.77C125.57 129.744 124.863 128.293 124.814 126.684C124.675 122.104 121.8 118.146 117.487 116.599C115.864 116.017 114.627 114.742 114.094 113.101C113.561 111.461 113.812 109.702 114.783 108.277C117.362 104.491 117.362 99.5983 114.783 95.812C113.812 94.3864 113.561 92.6278 114.094 90.987C114.627 89.3465 115.864 88.0715 117.487 87.4894C121.8 85.9423 124.675 81.984 124.814 77.4048C124.866 75.6806 125.696 74.1103 127.092 73.0966C128.487 72.0826 130.237 71.7784 131.894 72.2612C136.29 73.5447 140.945 72.0324 143.748 68.4096C144.804 67.0453 146.399 66.2627 148.124 66.2627C149.849 66.2627 151.444 67.0449 152.499 68.4092C155.303 72.0324 159.956 73.5444 164.354 72.2612C166.01 71.7777 167.76 72.0822 169.156 73.0962C170.552 74.1099 171.382 75.6806 171.434 77.4045C171.573 81.9837 174.448 85.9423 178.76 87.489C180.384 88.0711 181.621 89.3462 182.154 90.9866C182.687 92.6271 182.436 94.386 181.465 95.8113C178.885 99.5979 178.885 104.491 181.465 108.277Z" fill="#84BD52"/>
<path d="M148.124 78.842C135.331 78.842 124.922 89.2503 124.922 102.044C124.922 114.838 135.331 125.246 148.124 125.246C160.918 125.246 171.326 114.838 171.326 102.044C171.326 89.2503 160.918 78.842 148.124 78.842ZM148.124 119.71C138.383 119.71 130.459 111.785 130.459 102.044C130.459 92.3039 138.383 84.3788 148.124 84.3788C157.865 84.3788 165.79 92.3035 165.79 102.044C165.79 111.785 157.865 119.71 148.124 119.71Z" fill="#84BD52"/>
</svg>
