<svg width="189" height="189" viewBox="0 0 189 189" fill="none" xmlns="http://www.w3.org/2000/svg">
<path d="M111.039 102.864C111.035 102.855 111.029 102.847 111.025 102.839C110.976 102.736 110.922 102.635 110.86 102.538C110.859 102.538 110.859 102.537 110.859 102.537C110.8 102.444 110.733 102.357 110.662 102.271C110.644 102.249 110.626 102.228 110.607 102.207C110.551 102.144 110.492 102.082 110.429 102.023C110.407 102.003 110.386 101.982 110.364 101.962C110.284 101.891 110.2 101.823 110.11 101.76C110.105 101.757 110.101 101.754 110.097 101.751C110.006 101.689 109.913 101.634 109.818 101.584C109.792 101.571 109.766 101.559 109.74 101.546C109.662 101.508 109.582 101.473 109.502 101.443C109.476 101.433 109.451 101.423 109.425 101.414C109.209 101.34 108.987 101.293 108.764 101.274C108.755 101.273 108.746 101.271 108.737 101.27C107.789 101.197 85.3305 99.7135 71.5911 120.063C57.3821 140.088 66.6782 160.584 67.081 161.447C67.0846 161.455 67.0902 161.462 67.0942 161.471C67.1906 161.673 67.3124 161.864 67.4582 162.04C67.4759 162.061 67.4944 162.082 67.5125 162.103C67.569 162.167 67.6288 162.229 67.6919 162.288C67.7133 162.309 67.734 162.329 67.7557 162.349C67.8362 162.42 67.9207 162.488 68.0112 162.551C68.1219 162.628 68.2393 162.696 68.3604 162.756C68.4058 162.779 68.4523 162.796 68.4984 162.816C68.5723 162.848 68.6461 162.879 68.7229 162.904C68.779 162.923 68.8355 162.937 68.8923 162.952C68.9617 162.971 69.0311 162.987 69.1024 163C69.1622 163.011 69.2216 163.019 69.2818 163.026C69.3161 163.03 69.3493 163.038 69.3837 163.041C69.5195 163.051 70.0979 163.09 71.03 163.09C76.5952 163.09 94.7599 161.678 106.528 144.247C120.738 124.223 111.442 103.727 111.039 102.864ZM96.6259 108.342C99.0231 107.651 101.231 107.26 103.067 107.042L93.5066 120.853L92.2434 109.893C93.651 109.3 95.1102 108.78 96.6259 108.342ZM86.9703 112.639L88.7148 127.776L81.0042 138.915L78.2552 121.16C78.2238 120.958 78.1703 120.765 78.0994 120.582C80.6472 117.402 83.6137 114.754 86.9703 112.639ZM70.4892 154.105C69.0474 148.224 67.9462 137.914 73.5944 127.354L76.4117 145.549L70.4892 154.105ZM81.4937 155.969C79.0965 156.661 76.889 157.051 75.0529 157.269L80.9784 148.71L99.009 144.938C94.3844 150.24 88.5122 153.943 81.4937 155.969ZM103.749 138.339C103.554 138.338 103.355 138.355 103.157 138.397L85.5705 142.075L93.2811 130.936L108.036 127.246C107.305 130.81 105.976 134.57 103.749 138.339ZM108.758 121.341L98.0729 124.014L107.631 110.206C108.326 113.044 108.941 116.909 108.758 121.341Z" fill="#84BD52"/>
<path d="M158.083 128.795C159.617 128.795 160.86 127.552 160.86 126.019V48.5424C160.86 47.6088 160.663 46.7044 160.276 45.8535L149.98 23.278V4.62792C149.98 2.07605 147.904 0 145.352 0H104.971H84.2036H46.2146C43.6627 0 41.5867 2.07605 41.5867 4.62792V23.1399L29.0045 45.0012C28.439 45.9827 28.1404 47.1005 28.1404 48.2338V184.372C28.1404 186.924 30.2164 189 32.7683 189H137.389H156.232C158.784 189 160.86 186.924 160.86 184.372V145.221C160.86 143.688 159.617 142.444 158.083 142.444C156.549 142.444 155.306 143.688 155.306 145.221V183.447H140.169L140.322 47.8343V47.7974L147.328 30.8483L155.223 48.1581C155.278 48.2799 155.306 48.4095 155.306 48.5431V126.019C155.306 127.552 156.549 128.795 158.083 128.795ZM47.14 5.55335H81.4269V21.1049H47.14V5.55335ZM134.98 46.1839C134.876 46.4353 134.81 46.7003 134.783 46.9702C134.774 47.0603 134.77 47.1507 134.77 47.2415L134.615 183.447H33.6937V48.2338C33.6937 48.0717 33.7366 47.9126 33.817 47.772L45.9691 26.6582H79.9522L70.6067 47.941C70.4524 48.2928 70.3723 48.673 70.3723 49.0577V80.1925C70.3723 83.765 73.2789 86.6713 76.8511 86.6713H90.9426C94.5152 86.6713 97.4218 83.7646 97.4218 80.1925V75.9887C97.4218 74.4553 96.1789 73.212 94.6451 73.212C93.1114 73.212 91.8685 74.4553 91.8685 75.9887V80.1925C91.8685 80.7026 91.4535 81.1179 90.943 81.1179H76.8514C76.3409 81.1179 75.926 80.7026 75.926 80.1925V49.6406L86.7466 24.9982C86.9009 24.646 86.981 24.2662 86.981 23.8816V5.55335H102.195V23.3463L92.0678 48.6398C91.9367 48.968 91.8688 49.3183 91.8688 49.6719V56.1817C91.8688 57.7151 93.1117 58.9584 94.6455 58.9584C96.1793 58.9584 97.4222 57.7151 97.4222 56.1817V50.2068L106.851 26.6582H143.051L134.98 46.1839ZM144.426 21.1049H107.748V5.55335H144.426V21.1049Z" fill="#84BD52"/>
</svg>
