<svg width="35" height="35" viewBox="0 0 35 35" fill="none" xmlns="http://www.w3.org/2000/svg">
<g clip-path="url(#clip0)">
<path d="M33.7677 20.2606C34.8119 11.4712 33.266 5.92227 30.4777 3.41248L30.4792 3.41102C25.9787 -0.875025 10.78 -1.5094 5.39583 3.60352C2.97791 6.10456 2.12624 9.77519 2.03291 14.3194C1.93958 18.865 1.82874 27.3802 9.76354 29.6902H9.77083L9.76354 33.2179C9.76354 33.2179 9.70958 34.6471 10.6225 34.9344C11.6667 35.2727 12.1392 34.6091 15.3869 30.73C20.8177 31.201 24.9885 30.1219 25.4625 29.9644C26.5592 29.5969 32.7644 28.7758 33.7677 20.2606ZM15.9221 28.2479C15.9221 28.2479 12.4848 32.5339 11.4158 33.6466C11.0658 34.0083 10.6823 33.9748 10.6881 33.2573C10.6881 32.7862 10.7144 27.4006 10.7144 27.4006C3.98708 25.4727 4.38374 18.2219 4.45666 14.4287C4.52958 10.6341 5.22374 7.52643 7.27124 5.43373C11.9948 1.00477 25.3196 1.99498 28.7146 5.18581C32.865 8.86518 31.3877 19.2602 31.3965 19.6146C30.5433 26.7225 25.515 27.1731 24.5904 27.4808C24.1952 27.6121 20.5275 28.5556 15.9221 28.2479Z" fill="#3D3D3D"/>
<path d="M17.8237 6.26636C17.2622 6.26636 17.2622 7.14136 17.8237 7.14865C22.1797 7.18219 25.7672 10.2184 25.8066 15.7878C25.8066 16.3755 26.667 16.3682 26.6597 15.7805H26.6583C26.6116 9.77948 22.6945 6.2999 17.8237 6.26636Z" fill="#3D3D3D"/>
<path d="M23.5535 14.8648C23.5404 15.4453 24.3994 15.473 24.4067 14.8853C24.4781 11.5763 22.4379 8.85068 18.604 8.56339C18.0425 8.52255 17.9842 9.40484 18.5442 9.44568C21.8692 9.69797 23.6206 11.9671 23.5535 14.8648Z" fill="#3D3D3D"/>
<path d="M22.6349 18.6288C21.9145 18.2117 21.1809 18.4713 20.8776 18.8811L20.2432 19.7022C19.9209 20.1192 19.3187 20.0638 19.3187 20.0638C14.9232 18.9015 13.7478 14.3019 13.7478 14.3019C13.7478 14.3019 13.6939 13.6792 14.0964 13.3453L14.8897 12.689C15.2864 12.374 15.5372 11.6157 15.1332 10.8705C14.0541 8.9207 13.3293 8.2484 12.9603 7.73215C12.5724 7.24653 11.9891 7.13715 11.3824 7.46528H11.3693C10.1078 8.2032 8.72677 9.58424 9.16865 11.0061C9.92261 12.5053 11.308 17.2842 15.7239 20.8951C17.7991 22.6028 21.0832 24.3528 22.4774 24.7567L22.4905 24.7772C23.8643 25.2351 25.2001 23.8001 25.9132 22.5007V22.4905C26.2297 21.8619 26.1247 21.2669 25.6624 20.8776C24.8428 20.0784 23.6062 19.1961 22.6349 18.6288Z" fill="#3D3D3D"/>
<path d="M19.2047 11.8183C20.6062 11.8999 21.2858 12.632 21.3587 14.1356C21.3849 14.7233 22.2381 14.6825 22.2118 14.0947C22.1185 12.1318 21.0947 11.0381 19.2514 10.936C18.6899 10.9024 18.6374 11.7847 19.2047 11.8183Z" fill="#3D3D3D"/>
</g>
<defs>
<clipPath id="clip0">
<rect width="35" height="35" fill="white"/>
</clipPath>
</defs>
</svg>
