<svg width="35" height="35" viewBox="0 0 35 35" fill="none" xmlns="http://www.w3.org/2000/svg">
<path fill-rule="evenodd" clip-rule="evenodd" d="M29.1069 5.84513C26.0371 2.77176 21.9546 1.07846 17.6053 1.07666C8.64311 1.07666 1.34922 8.37035 1.34561 17.3349C1.34441 20.2006 2.09303 22.998 3.51596 25.4637L1.20923 33.8892L9.82872 31.6281C12.2037 32.9237 14.8776 33.6064 17.5987 33.6072H17.6055C26.5666 33.6072 33.8613 26.3129 33.8647 17.3479C33.8665 13.0032 32.1768 8.91829 29.1069 5.84513ZM17.6053 30.8613H17.5997C15.1748 30.8603 12.7965 30.2086 10.7213 28.9775L10.2281 28.6845L5.11312 30.0263L6.47837 25.0394L6.15694 24.5281C4.8041 22.3763 4.08973 19.8894 4.09094 17.3359C4.09374 9.88481 10.1564 3.82278 17.6107 3.82278C21.2204 3.82399 24.6136 5.23149 27.165 7.78596C29.7165 10.3404 31.1208 13.7358 31.1196 17.3469C31.1164 24.7986 25.0542 30.8613 17.6053 30.8613ZM25.0181 20.7397C24.612 20.5363 22.6145 19.5537 22.2419 19.4179C21.8698 19.2824 21.5987 19.2149 21.3281 19.6214C21.0571 20.028 20.2787 20.9432 20.0416 21.2142C19.8044 21.4853 19.5677 21.5194 19.1614 21.3159C18.755 21.1126 17.446 20.6835 15.8941 19.2994C14.6865 18.2221 13.8712 16.8917 13.6341 16.4852C13.3974 16.0782 13.6321 15.8795 13.8123 15.656C14.2521 15.1099 14.6925 14.5373 14.8279 14.2663C14.9635 13.9952 14.8956 13.7579 14.7938 13.5546C14.6925 13.3513 13.88 11.3516 13.5416 10.5379C13.2115 9.74602 12.8769 9.85296 12.6273 9.84055C12.3906 9.82873 12.1196 9.82633 11.8487 9.82633C11.5779 9.82633 11.1377 9.92786 10.7652 10.3348C10.3929 10.7416 9.34346 11.7243 9.34346 13.724C9.34346 15.7237 10.7992 17.6555 11.0023 17.9267C11.2054 18.1979 13.8672 22.3014 17.9425 24.061C18.9118 24.48 19.6685 24.7297 20.2587 24.917C21.232 25.2262 22.1174 25.1826 22.8175 25.078C23.5982 24.9613 25.221 24.0951 25.5598 23.1462C25.8983 22.1971 25.8983 21.3838 25.7966 21.2142C25.6952 21.0447 25.4243 20.9432 25.0181 20.7397Z" fill="#3D3D3D"/>
</svg>
