<svg width="35" height="35" viewBox="0 0 35 35" fill="none" xmlns="http://www.w3.org/2000/svg">
<g clip-path="url(#clip0)">
<path d="M29.8722 5.12328C23.037 -1.70986 11.9565 -1.70822 5.1234 5.12704C-1.70973 11.9623 -1.70809 23.0427 5.12716 29.8758C11.9624 36.7089 23.0428 36.7073 29.8759 29.872C33.1576 26.5894 35.0007 22.1375 34.9997 17.4958C34.9987 12.8549 33.1543 8.40439 29.8722 5.12328ZM26.5028 24.3768C26.502 24.3776 26.5013 24.3784 26.5005 24.3792V24.3733L25.6138 25.2542C24.4671 26.4154 22.797 26.8931 21.2096 26.5142C19.6103 26.0861 18.09 25.4047 16.7063 24.4958C15.4207 23.6742 14.2293 22.7138 13.1538 21.6317C12.1641 20.6493 11.2751 19.5706 10.4996 18.4117C9.65139 17.1646 8.98003 15.8062 8.50459 14.375C7.95956 12.6936 8.41121 10.8486 9.67128 9.60916L10.7096 8.57085C10.9983 8.28087 11.4674 8.27984 11.7573 8.56852C11.758 8.56927 11.7588 8.57003 11.7596 8.57085L15.0379 11.8492C15.3279 12.1378 15.3289 12.6069 15.0402 12.8968C15.0395 12.8976 15.0387 12.8983 15.0379 12.8992L13.1129 14.8242C12.5606 15.3705 12.4911 16.2387 12.9496 16.8658C13.6458 17.8214 14.4163 18.7205 15.2538 19.555C16.1875 20.4928 17.2026 21.3458 18.2871 22.1042C18.9137 22.5413 19.7633 22.4676 20.3054 21.9292L22.1662 20.0392C22.4549 19.7492 22.924 19.7482 23.2139 20.0369C23.2146 20.0377 23.2154 20.0384 23.2162 20.0392L26.5004 23.3292C26.7904 23.6178 26.7915 24.0869 26.5028 24.3768Z" fill="#84BD52"/>
</g>
<defs>
<clipPath id="clip0">
<rect width="35" height="35" fill="white"/>
</clipPath>
</defs>
</svg>
