<svg width="35" height="35" viewBox="0 0 35 35" fill="none" xmlns="http://www.w3.org/2000/svg">
<path d="M17.5 35C27.1498 35 35 27.1498 35 17.5C35 7.85021 27.1498 0 17.5 0C7.85021 0 0 7.85021 0 17.5C0 27.1498 7.85021 35 17.5 35ZM17.5 2.1875C25.9438 2.1875 32.8125 9.05625 32.8125 17.5C32.8125 25.9438 25.9438 32.8125 17.5 32.8125C9.05625 32.8125 2.1875 25.9438 2.1875 17.5C2.1875 9.05625 9.05625 2.1875 17.5 2.1875Z" fill="#3D3D3D"/>
<path d="M11.515 20.6428L13.8016 19.6497L13.16 20.2928C12.9543 20.4984 12.8391 20.777 12.8391 21.0657V25.3459C12.8391 26.3259 14.0233 26.8013 14.7058 26.1188L17.0012 23.8234L22.0033 26.3245C22.6508 26.6482 23.4339 26.2647 23.5681 25.5413L26.422 9.84821C26.5722 9.00384 25.741 8.32134 24.9462 8.63342L6.40203 15.8916C5.57078 16.2153 5.45995 17.3528 6.21245 17.8326L10.4912 20.5626C10.7974 20.758 11.1839 20.7886 11.515 20.6428ZM23.9195 11.3868L21.6781 23.717L17.2739 21.5163C16.8481 21.3034 16.3406 21.3924 16.0124 21.722L15.0266 22.7078V21.5222L19.4118 17.137C20.262 16.2868 19.3054 14.8838 18.2029 15.3607L11.1781 18.4086L9.20349 17.1486L23.9195 11.3868Z" fill="#3D3D3D"/>
</svg>
