<svg width="49" height="49" viewBox="0 0 49 49" fill="none" xmlns="http://www.w3.org/2000/svg">
<path d="M24.5 0C10.9907 0 0 10.9907 0 24.5C0 38.0093 10.9907 49 24.5 49C38.0093 49 49 38.0093 49 24.5C49 10.9907 38.0093 0 24.5 0ZM37.2098 25.1746L19.2431 37.4246C19.1051 37.5185 18.9442 37.5667 18.7833 37.5667C18.6527 37.5667 18.5212 37.5356 18.402 37.4719C18.1341 37.3307 17.9667 37.053 17.9667 36.75V12.25C17.9667 11.947 18.1341 11.6693 18.402 11.5281C18.6698 11.386 18.9932 11.4056 19.2439 11.5754L37.2106 23.8254C37.4327 23.9773 37.5667 24.2297 37.5667 24.5C37.5667 24.7703 37.4327 25.0227 37.2098 25.1746Z" fill="#84BD52"/>
</svg>
