<svg width="49" height="49" viewBox="0 0 49 49" fill="none" xmlns="http://www.w3.org/2000/svg">
<path d="M37.2098 23.8254L19.2431 11.5754C18.9924 11.4056 18.669 11.3868 18.4011 11.5281C18.1341 11.6693 17.9667 11.947 17.9667 12.25V36.75C17.9667 37.053 18.1341 37.3306 18.402 37.4719C18.5212 37.5356 18.6527 37.5667 18.7833 37.5667C18.9442 37.5667 19.1051 37.5185 19.2431 37.4246L37.2098 25.1746C37.4327 25.0227 37.5667 24.7703 37.5667 24.5C37.5667 24.2297 37.4327 23.9773 37.2098 23.8254ZM19.6 35.204V13.7959L35.3004 24.5L19.6 35.204Z" fill="#84BD52"/>
<path d="M24.5 0C10.9907 0 0 10.9907 0 24.5C0 38.0093 10.9907 49 24.5 49C38.0093 49 49 38.0093 49 24.5C49 10.9907 38.0093 0 24.5 0ZM24.5 47.3667C11.8915 47.3667 1.63333 37.1085 1.63333 24.5C1.63333 11.8915 11.8915 1.63333 24.5 1.63333C37.1085 1.63333 47.3667 11.8915 47.3667 24.5C47.3667 37.1085 37.1085 47.3667 24.5 47.3667Z" fill="#84BD52"/>
</svg>
