<svg width="35" height="35" viewBox="0 0 35 35" fill="none" xmlns="http://www.w3.org/2000/svg">
<path d="M17.5 35C27.1498 35 35 27.1498 35 17.5C35 7.85021 27.1498 0 17.5 0C7.85021 0 0 7.85021 0 17.5C0 27.1498 7.85021 35 17.5 35ZM17.5 2.1875C25.9438 2.1875 32.8125 9.05625 32.8125 17.5C32.8125 25.9438 25.9438 32.8125 17.5 32.8125C9.05625 32.8125 2.1875 25.9438 2.1875 17.5C2.1875 9.05625 9.05625 2.1875 17.5 2.1875Z" fill="#3D3D3D"/>
<path d="M11.515 20.6427L13.8016 19.6496L13.16 20.2927C12.9543 20.4983 12.8391 20.7768 12.8391 21.0656V25.3458C12.8391 26.3258 14.0233 26.8012 14.7058 26.1187L17.0012 23.8233L22.0033 26.3244C22.6508 26.6481 23.4339 26.2646 23.5681 25.5412L26.422 9.84809C26.5722 9.00372 25.741 8.32122 24.9462 8.6333L6.40203 15.8914C5.57078 16.2152 5.45995 17.3527 6.21245 17.8325L10.4912 20.5625C10.7974 20.7579 11.1839 20.7885 11.515 20.6427ZM23.9195 11.3866L21.6781 23.7168L17.2739 21.5162C16.8481 21.3033 16.3406 21.3923 16.0124 21.7218L15.0266 22.7077V21.5221L19.4118 17.1368C20.262 16.2866 19.3054 14.8837 18.2029 15.3606L11.1781 18.4085L9.20349 17.1485L23.9195 11.3866Z" fill="#3D3D3D"/>
</svg>
